<svg xmlns="http://www.w3.org/2000/svg" viewBox="0 0 512 512">
  <rect width="512" height="512" rx="100" fill="#f5a623"/>
  <!-- ears -->
  <circle cx="155" cy="160" r="62" fill="#c47d10"/>
  <circle cx="357" cy="160" r="62" fill="#c47d10"/>
  <circle cx="155" cy="160" r="38" fill="#e8943a"/>
  <circle cx="357" cy="160" r="38" fill="#e8943a"/>
  <!-- head -->
  <ellipse cx="256" cy="230" rx="140" ry="128" fill="#e8943a"/>
  <!-- body -->
  <ellipse cx="256" cy="390" rx="110" ry="100" fill="#c47d10"/>
  <!-- belly -->
  <ellipse cx="256" cy="395" rx="70" ry="65" fill="#e8943a"/>
  <!-- arms -->
  <ellipse cx="140" cy="390" rx="42" ry="70" fill="#c47d10" transform="rotate(-15 140 390)"/>
  <ellipse cx="372" cy="390" rx="42" ry="70" fill="#c47d10" transform="rotate(15 372 390)"/>
  <!-- legs -->
  <ellipse cx="195" cy="470" rx="40" ry="28" fill="#c47d10"/>
  <ellipse cx="317" cy="470" rx="40" ry="28" fill="#c47d10"/>
  <!-- snout -->
  <ellipse cx="256" cy="268" rx="55" ry="44" fill="#c47d10"/>
  <!-- nose -->
  <ellipse cx="256" cy="252" rx="22" ry="14" fill="#3d1f00"/>
  <!-- mouth -->
  <path d="M238 272 Q256 292 274 272" stroke="#3d1f00" stroke-width="5" fill="none" stroke-linecap="round"/>
  <!-- eyes -->
  <circle cx="212" cy="210" r="20" fill="#fff"/>
  <circle cx="300" cy="210" r="20" fill="#fff"/>
  <circle cx="216" cy="213" r="12" fill="#3d1f00"/>
  <circle cx="304" cy="213" r="12" fill="#3d1f00"/>
  <circle cx="220" cy="209" r="4" fill="#fff"/>
  <circle cx="308" cy="209" r="4" fill="#fff"/>
</svg>